# xmcd CD database file
#
# Track frame offsets:
#	150
#	15765
#	32185
#	49385
#	64207
#	81970
#	93410
#	108235
#	128450
#	141580
#	157150
#	178512
#	190302
#	211737
#	225340
#
# Disc length: 3155 seconds
#
# Revision: 0
# Processed by: cddbd v1.4PL0 Copyright (c) Steve Scherf et al.
# Submitted via: CDex 1.51
#
DISCID=c50c510f
DTITLE=Glamour Puss - Wire and Wood
DYEAR=2003
DGENRE=Blues
TTITLE0=Kitty Kitty
TTITLE1=Hollow Man
TTITLE2=Don't You Worry
TTITLE3=I don't know how to win your love
TTITLE4=You're Rich I'm Poor
TTITLE5=Maman Don't Play No Zydeco
TTITLE6=Wire and Wood
TTITLE7=If you Miss Me
TTITLE8=Swingin' Cin
TTITLE9=Boom Boom
TTITLE10=Dangereuse
TTITLE11=Six Feet Down
TTITLE12=Million-Air
TTITLE13=Blues For Sheila
TTITLE14=Hided Track
EXTD=YEAR: 2003
EXTT0=
EXTT1=
EXTT2=
EXTT3=
EXTT4=
EXTT5=
EXTT6=
EXTT7=
EXTT8=
EXTT9=
EXTT10=
EXTT11=
EXTT12=
EXTT13=
EXTT14=
PLAYORDER=
